<svg width="30" height="30" viewBox="0 0 30 30" fill="none" xmlns="http://www.w3.org/2000/svg">
<circle cx="15" cy="15" r="14.5" fill="white" stroke="#0D2944"/>
<path d="M9.375 9.375L10.1562 21.875C10.1934 22.5973 10.7187 23.125 11.4062 23.125H18.5938C19.284 23.125 19.7996 22.5973 19.8438 21.875L20.625 9.375" stroke="#0D2944" stroke-width="0.9375" stroke-linecap="round" stroke-linejoin="round"/>
<path d="M8.125 9.375H21.875Z" fill="#0D2944"/>
<path d="M8.125 9.375H21.875" stroke="#0D2944" stroke-width="0.9375" stroke-miterlimit="10" stroke-linecap="round"/>
<path d="M12.5 9.375V7.8125C12.4996 7.68928 12.5236 7.56721 12.5706 7.4533C12.6176 7.3394 12.6867 7.23591 12.7738 7.14878C12.8609 7.06165 12.9644 6.99261 13.0783 6.94562C13.1922 6.89864 13.3143 6.87464 13.4375 6.875H16.5625C16.6857 6.87464 16.8078 6.89864 16.9217 6.94562C17.0356 6.99261 17.1391 7.06165 17.2262 7.14878C17.3133 7.23591 17.3824 7.3394 17.4294 7.4533C17.4764 7.56721 17.5004 7.68928 17.5 7.8125V9.375M15 11.875V20.625M12.1875 11.875L12.5 20.625M17.8125 11.875L17.5 20.625" stroke="#0D2944" stroke-width="0.9375" stroke-linecap="round" stroke-linejoin="round"/>
</svg>
