<svg width="30" height="30" viewBox="0 0 30 30" fill="none" xmlns="http://www.w3.org/2000/svg">
<circle cx="15" cy="15" r="14.5" stroke="#0D2944"/>
<path d="M8 22H9.098L19.796 11.302L18.698 10.204L8 20.902V22ZM7 23V20.48L20.18 7.28802C20.2833 7.19668 20.3967 7.12602 20.52 7.07602C20.6433 7.02602 20.7723 7.00068 20.907 7.00002C21.0417 6.99935 21.1717 7.02068 21.297 7.06402C21.4237 7.10602 21.5403 7.18201 21.647 7.29201L22.714 8.36602C22.824 8.47202 22.8993 8.58868 22.94 8.71602C22.98 8.84268 23 8.96935 23 9.09602C23 9.23202 22.9773 9.36202 22.932 9.48602C22.886 9.60935 22.8133 9.72235 22.714 9.82502L9.519 23H7ZM19.238 10.762L18.698 10.204L19.796 11.302L19.238 10.762Z" fill="#0D2944"/>
</svg>
